<svg xmlns="http://www.w3.org/2000/svg" xmlns:xlink="http://www.w3.org/1999/xlink" viewBox="0 0 254.86 308.23"><defs><style>.cls-1,.cls-12,.cls-26,.cls-8{fill:#3688ff;}.cls-1{opacity:0.1;}.cls-2{fill:#2e3192;}.cls-18,.cls-3{fill:#feca3b;}.cls-19,.cls-4{fill:#ffbd1a;}.cls-16,.cls-5{fill:#d1d9e8;}.cls-17,.cls-6{fill:#edf4ff;}.cls-7{fill:#5b93f3;}.cls-9{fill:#536dfe;}.cls-10,.cls-11,.cls-12,.cls-13,.cls-14,.cls-15,.cls-16,.cls-17,.cls-18,.cls-19,.cls-20,.cls-9{fill-rule:evenodd;}.cls-10{fill:#3e52bf;}.cls-11{fill:#758afe;}.cls-13{fill:#1f82e5;}.cls-14{fill:#48acff;}.cls-15{fill:#e3eeff;}.cls-20{fill:#ffcc71;}.cls-21,.cls-22,.cls-23,.cls-24,.cls-26{opacity:0.2;}.cls-21{fill:url(#未命名的渐变_10);}.cls-22{fill:url(#未命名的渐变_10-2);}.cls-23{fill:url(#未命名的渐变_10-3);}.cls-24{fill:url(#未命名的渐变_10-4);}.cls-25{fill:#f7f7fe;}.cls-27{opacity:0.4;fill:url(#未命名的渐变_16);}</style><linearGradient id="未命名的渐变_10" x1="35.97" y1="-1137.69" x2="35.97" y2="-965.01" gradientTransform="matrix(1, 0, 0, -1, 0, -888.18)" gradientUnits="userSpaceOnUse"><stop offset="0" stop-color="#fff" stop-opacity="0"/><stop offset="1" stop-color="#319dff"/></linearGradient><linearGradient id="未命名的渐变_10-2" x1="94.67" y1="-1066.83" x2="94.67" y2="-894.15" xlink:href="#未命名的渐变_10"/><linearGradient id="未命名的渐变_10-3" x1="203.9" y1="-1163.65" x2="203.9" y2="-1044.73" xlink:href="#未命名的渐变_10"/><linearGradient id="未命名的渐变_10-4" x1="215.47" y1="-1046.7" x2="215.47" y2="-927.78" xlink:href="#未命名的渐变_10"/><linearGradient id="未命名的渐变_16" x1="126.1" y1="30.7" x2="126.1" y2="283.94" gradientUnits="userSpaceOnUse"><stop offset="0" stop-color="#fff" stop-opacity="0"/><stop offset="0.4" stop-color="#cbe6ff" stop-opacity="0"/><stop offset="1" stop-color="#319dff"/></linearGradient></defs><g id="图层_2" data-name="图层 2"><g id="图层_1-2" data-name="图层 1"><path class="cls-1" d="M127.43,308.23c-33.15,0-64.44-8.53-88.1-24C14,267.62,0,244.74,0,219.79S14,172,39.33,155.35c23.66-15.48,55-24,88.1-24s64.44,8.53,88.1,24c25.36,16.6,39.33,39.48,39.33,64.44s-14,47.83-39.33,64.43C191.87,299.7,160.58,308.23,127.43,308.23Z"/><polygon class="cls-2" points="128.13 233.79 128.09 233.79 128.06 233.79 128.09 233.78 128.09 233.78 128.13 233.79"/><path class="cls-3" d="M175.48,224.56a15.82,15.82,0,0,1-.37,3.41l-47-3.41-.83-27.35c12.4-.13,24.87,2.54,34.34,8C170.86,210.56,175.48,217.55,175.48,224.56Z"/><polygon class="cls-4" points="175.12 227.97 175.12 240.47 171.52 240.28 129.8 238.05 128.09 237.96 128.09 224.56 175.12 227.97"/><polygon class="cls-4" points="127.26 197.21 127.26 235.67 128.09 237.96 128.09 224.56 127.26 197.21"/><path class="cls-4" d="M175.48,224.56v20.73a15.76,15.76,0,0,1-.37,3.41V228A15.82,15.82,0,0,0,175.48,224.56Z"/><path class="cls-5" d="M81.8,234.61v16.32A16.48,16.48,0,0,1,80.69,245V228.72a16.36,16.36,0,0,0,1,5.64C81.74,234.44,81.76,234.52,81.8,234.61Z"/><path class="cls-6" d="M128.09,228.72l0,0h0l-.3,0-28.36,3.59L81.8,234.61c0-.09-.06-.17-.09-.25a16.36,16.36,0,0,1-1-5.64c0-7,4.63-14,13.89-19.34,9-5.22,20.82-7.89,32.68-8l.31,10.4,0,.87Z"/><path class="cls-7" d="M173.43,237.06l-16.18-1.17-29.11-2.1h-.09l-.3,0-28.36,3.6L81.8,239.66a24.26,24.26,0,0,0,8,10.25q.93.74,2,1.44c.89.61,1.82,1.2,2.83,1.78a52.12,52.12,0,0,0,8.62,3.94,75.92,75.92,0,0,0,28.05,4c.75,0,1.49-.07,2.23-.12,10.28-.67,20.24-3.28,28.12-7.83a37.07,37.07,0,0,0,7-5.14,22.53,22.53,0,0,0,5.86-8.58,16.85,16.85,0,0,0,.64-2.22Z"/><path class="cls-8" d="M174.47,239.41a22.53,22.53,0,0,1-5.86,8.58,37.07,37.07,0,0,1-7,5.14c-7.88,4.55-17.84,7.16-28.12,7.83-.74.05-1.48.09-2.23.12a75.92,75.92,0,0,1-28-4,52.12,52.12,0,0,1-8.62-3.94c-1-.58-1.94-1.17-2.83-1.78q-1-.71-2-1.44a24.26,24.26,0,0,1-8-10.25v11.27c1.59,4.2,4.9,8.22,10,11.68.89.61,1.82,1.21,2.83,1.79,10.63,6.14,25,8.75,38.9,7.83,10.28-.68,20.24-3.28,28.12-7.83s12.25-10.12,13.51-15.94V237.19A16.85,16.85,0,0,1,174.47,239.41Z"/><polygon class="cls-5" points="128.09 228.75 128.1 233.8 81.84 239.67 81.75 234.37 128.09 228.75"/><polygon class="cls-9" points="127.76 72.05 145.71 175.74 168.86 162.37 168.78 69.82 127.76 72.05"/><polygon class="cls-10" points="122.64 69.81 122.72 162.37 145.71 175.74 145.64 83.18 122.64 69.81"/><polygon class="cls-11" points="122.64 69.81 145.64 83.18 168.78 69.82 145.78 56.45 122.64 69.81"/><polygon class="cls-12" points="97.99 115.89 114.76 193.28 137.91 179.91 137.83 113.66 97.99 115.89"/><polygon class="cls-13" points="91.69 113.66 91.77 179.91 114.76 193.28 114.69 127.02 91.69 113.66"/><polygon class="cls-14" points="91.69 113.42 114.69 126.78 137.83 113.43 114.83 100.06 91.69 113.42"/><polygon class="cls-15" points="68.98 175.28 84.49 210.56 107.64 197.2 107.56 170.52 68.98 175.28"/><polygon class="cls-16" points="61.41 170.52 61.49 197.2 84.49 210.56 84.42 183.88 61.41 170.52"/><polygon class="cls-17" points="61.41 170.52 84.42 183.88 107.56 170.52 84.56 157.15 61.41 170.52"/><polygon class="cls-18" points="41.6 210.5 54.83 227.75 77.97 214.38 77.9 203.64 41.6 210.5"/><polygon class="cls-19" points="31.75 203.63 31.83 214.38 54.83 227.75 54.76 217 31.75 203.63"/><polygon class="cls-20" points="31.75 203.63 54.76 217 77.9 203.64 54.9 190.27 31.75 203.63"/><polygon class="cls-19" points="115.75 66.71 101.9 67.23 107.56 74.52 117.55 78.83 115.75 66.71"/><path class="cls-19" d="M126.14,25.54l10,4.31L105.41,63.07,91.22,53.45l34.92-27.91ZM42.5,164.91l64.68-99.47-10-4.32L33.36,151.35l9.14,13.56Z"/><polygon class="cls-19" points="101.2 57.76 91.22 53.45 97.19 61.12 111.24 68.28 101.2 57.76"/><polygon class="cls-18" points="101.2 57.76 107.18 65.44 43.35 155.66 41.27 171.37 111.89 71.54 117.55 78.83 136.13 29.85 101.2 57.76"/><polygon class="cls-19" points="29.92 165.63 41.27 171.37 43.35 155.66 33.36 151.35 29.92 165.63"/><rect class="cls-21" x="30.76" y="70.86" width="10.41" height="164.71"/><rect class="cls-22" x="89.46" width="10.41" height="164.71"/><rect class="cls-23" x="200.32" y="152.44" width="7.17" height="113.43"/><rect class="cls-24" x="211.89" y="35.49" width="7.17" height="113.43"/><path class="cls-8" d="M227.47,205.18h0a9.82,9.82,0,0,1-15.36,2.88L209,205.21l9.15-18.2,7.17,6.48A9.83,9.83,0,0,1,227.47,205.18Z"/><path class="cls-25" d="M228.18,202.88h0a9.82,9.82,0,0,1-15.36,2.88l-3.15-2.85,9.14-18.2,7.18,6.48A9.83,9.83,0,0,1,228.18,202.88Z"/><path class="cls-8" d="M176.79,123.48a17,17,0,0,0-7.67,5.76,30.41,30.41,0,0,0-5.33,12.23c-4.35,19.84,4.3,47,19.31,60.73a30.09,30.09,0,0,0,11.42,6.88,17.67,17.67,0,0,0,7.31.71,11.3,11.3,0,0,0,2.42-.5l-3.63,1.18-.79.24a15.16,15.16,0,0,1-2.43.49c-5.74.71-12.29-1.73-18.74-7.61-15-13.69-23.67-40.87-19.31-60.72,2.13-9.74,7-15.91,13.16-18l.84-.25Z"/><path class="cls-25" d="M198.86,130.3c6.72,6.13,12.17,15,15.73,24.69l0,.13a62.27,62.27,0,0,1,2.14,6.66c2.69,10,3.36,20.37,1.4,29.28-1.85,8.49-5.8,14.28-10.88,17a15.78,15.78,0,0,1-2.28,1l-.76.23a11.3,11.3,0,0,1-2.42.5,17.67,17.67,0,0,1-7.31-.71,30.09,30.09,0,0,1-11.42-6.88c-15-13.69-23.66-40.89-19.31-60.73a30.41,30.41,0,0,1,5.33-12.23,17,17,0,0,1,7.67-5.76l1-.33C184.05,121.38,191.54,123.63,198.86,130.3Z"/><path class="cls-26" d="M197.21,140.31c4.89,4.46,8.86,10.9,11.45,18l0,.09a47.24,47.24,0,0,1,1.56,4.85c2,7.25,2.44,14.83,1,21.31-1.35,6.18-4.22,10.4-7.93,12.37a10.25,10.25,0,0,1-1.66.74l-.55.17a9.15,9.15,0,0,1-1.76.36,12.77,12.77,0,0,1-5.32-.52,21.87,21.87,0,0,1-8.31-5c-10.93-10-17.22-29.76-14.06-44.2a22.09,22.09,0,0,1,3.88-8.9,12.52,12.52,0,0,1,5.58-4.2l.73-.24C186.43,133.82,191.88,135.45,197.21,140.31Z"/><path class="cls-27" d="M233.5,241.64s-24.44,51.89-103.36,51.05c-86-.91-111.44-51.05-111.44-51.05V51.16H233.5Z"/></g></g></svg>